<?xml version="1.0" encoding="UTF-8"?>
<svg fill="none" viewBox="0 0 512 512" xmlns="http://www.w3.org/2000/svg">
<g clip-path="url(#a)" fill="#000">
<path d="m501.99 128.35-241-85.031c-3.229-1.14-6.752-1.14-9.981 0l-241 85.031c-5.992 2.114-10.002 7.774-10.01 14.128-8e-3 6.354 3.989 12.023 9.976 14.151l241 85.677c1.625 0.578 3.325 0.867 5.024 0.867 1.7 0 3.399-0.289 5.024-0.867l241-85.677c5.987-2.128 9.983-7.797 9.976-14.151-8e-3 -6.354-4.018-12.014-10.009-14.128z"/>
<path d="m475.97 328.57v-130.84l-30 10.665v120.18c-9.036 5.201-15.125 14.946-15.125 26.121 0 11.174 6.089 20.92 15.125 26.121v73.716c0 8.284 6.716 15 15 15s15-6.716 15-15v-73.715c9.036-5.2 15.125-14.947 15.125-26.121 0-11.175-6.088-20.921-15.125-26.122z"/>
<path d="m256 273.18c-5.149 0-10.22-0.875-15.073-2.6l-135.48-48.165v66.008c0 16.149 16.847 29.806 50.073 40.59 28.961 9.4 64.647 14.577 100.48 14.577s71.521-5.177 100.48-14.577c33.226-10.784 50.073-24.441 50.073-40.59v-66.008l-135.48 48.165c-4.854 1.725-9.925 2.6-15.074 2.6z"/>
</g>
<defs>
<clipPath id="a">
<rect width="512" height="512" fill="#fff"/>
</clipPath>
</defs>
</svg>
