<?xml version="1.0" encoding="UTF-8"?>
<svg fill="none" viewBox="0 0 512 512" xmlns="http://www.w3.org/2000/svg">
<path d="m471.38 72.578c-26.504-28.746-62.871-44.578-102.41-44.578-29.555 0-56.621 9.3438-80.45 27.77-12.023 9.3008-22.918 20.68-32.523 33.961-9.602-13.277-20.5-24.66-32.527-33.961-23.825-18.426-50.891-27.77-80.446-27.77-39.539 0-75.91 15.832-102.41 44.578-26.188 28.41-40.613 67.223-40.613 109.29 0 43.301 16.137 82.938 50.781 124.74 30.992 37.395 75.535 75.356 127.12 119.31 17.614 15.012 37.579 32.027 58.309 50.152 5.477 4.797 12.504 7.438 19.793 7.438 7.285 0 14.316-2.641 19.785-7.43 20.731-18.129 40.707-35.152 58.328-50.172 51.575-43.949 96.117-81.906 127.11-119.3 34.644-41.8 50.777-81.437 50.777-124.74 0-42.066-14.426-80.879-40.617-109.29z" fill="#000"/>
</svg>
