<?xml version="1.0" encoding="UTF-8"?>
<svg fill="none" viewBox="0 0 512 512" xmlns="http://www.w3.org/2000/svg">
<g clip-path="url(#a)" fill="#2a2929">
<path d="m320 138.67c-11.776 0-21.333-9.558-21.333-21.334v-32h-85.334v32c0 11.776-9.557 21.334-21.333 21.334s-21.333-9.558-21.333-21.334v-32c0-23.531 19.136-42.667 42.666-42.667h85.334c23.53 0 42.666 19.136 42.666 42.667v32c0 11.776-9.557 21.334-21.333 21.334z"/>
<path d="m271.15 328.11c-3.84 1.493-9.387 2.56-15.147 2.56s-11.307-1.067-16.427-2.987l-239.57-79.787v162.77c0 32.426 26.24 58.666 58.667 58.666h394.67c32.427 0 58.667-26.24 58.667-58.666v-162.77l-240.85 80.214z"/>
<path d="m512 165.33v48.854l-250.88 83.626c-1.707 0.64-3.413 0.854-5.12 0.854s-3.413-0.214-5.12-0.854l-250.88-83.626v-48.854c0-32.426 26.24-58.666 58.667-58.666h394.67c32.427 0 58.667 26.24 58.667 58.666z"/>
</g>
<defs>
<clipPath id="a">
<rect width="512" height="512" fill="#fff"/>
</clipPath>
</defs>
</svg>
